<svg width="64" height="32" viewBox="0 0 64 32" fill="none" xmlns="http://www.w3.org/2000/svg">
<g clip-path="url(#clip0_4_829)">
<path fill-rule="evenodd" clip-rule="evenodd" d="M14.1911 7.73224C10.9104 11.5851 7.76477 16.3629 7.73323 19.9342C7.72094 21.2779 8.14992 22.451 9.17887 23.3395C10.6597 24.6191 12.2913 25.0703 13.9149 25.073C16.2875 25.0763 18.6436 24.1191 20.4883 23.381C23.5951 22.1385 57.9375 7.22491 57.9375 7.22491C58.2689 7.05889 58.2068 6.85204 57.7921 6.9553C57.6248 6.99714 20.405 17.0838 20.405 17.0838C19.7 17.2831 18.9715 17.3874 18.2389 17.3939C15.3785 17.4108 12.8331 15.8231 12.8537 12.4772C12.8617 11.168 13.2625 9.58926 14.1911 7.73224Z" fill="black"/>
</g>
<defs>
<clipPath id="clip0_4_829">
<rect width="64" height="32" fill="white"/>
</clipPath>
</defs>
</svg>

